<svg width="47" height="41" viewBox="0 0 47 41" fill="none" xmlns="http://www.w3.org/2000/svg">
<path d="M24.8524 37.1204C24.4361 36.7532 23.9988 36.3847 23.5825 35.978C23.2496 36.2837 22.9378 36.5693 22.6049 36.8549C18.4834 40.3797 14.2378 41.8478 11.7191 40.4205C9.28304 39.0547 8.51284 35.0176 9.49186 29.9411C9.59582 29.3904 9.72079 28.84 9.86679 28.2897C9.42948 28.1673 9.0132 28.0449 8.59691 27.9025C3.41368 26.1515 0 23.2949 0 20.4403C0 17.6887 3.18655 15.0173 8.15893 13.3051C8.72098 13.1218 9.30405 12.9379 9.90747 12.7747C9.7617 12.2443 9.65729 11.7353 9.55355 11.2458C8.51284 6.08634 9.24168 1.96897 11.698 0.583139C14.2581 -0.884959 18.5044 0.684803 22.771 4.37545C23.0205 4.59951 23.2706 4.84364 23.5412 5.08843C23.9371 4.72191 24.3114 4.35271 24.7073 4.02899C28.7468 0.58314 32.7625 -0.864894 35.2175 0.521606C37.7776 1.94824 38.5275 6.35387 37.3823 11.7955C37.32 12.1427 37.2366 12.4684 37.1538 12.8155C37.6739 12.9586 38.1939 13.1212 38.6732 13.2837C43.752 14.9966 47.041 17.6673 46.9996 20.4811C46.9996 23.3571 43.4822 26.1896 38.0908 27.9426C37.7993 28.0242 37.5084 28.1259 37.2169 28.2102C37.3416 28.6181 37.425 29.0255 37.5084 29.4335C38.5932 34.7173 37.7586 39.0366 35.2399 40.4639C34.57 40.8307 33.8133 41.0154 33.0473 40.999C30.7353 40.9997 27.805 39.6025 24.8524 37.1204ZM28.9325 29.6381C27.7315 31.3522 26.4179 32.9868 25.0002 34.5313C25.3955 34.9193 25.7907 35.2671 26.1867 35.5914C29.6207 38.4862 32.7849 39.567 34.2622 38.731C34.9497 38.3437 35.5321 37.3652 35.8033 35.877C36.104 33.8541 36.0192 31.7935 35.5531 29.8013C35.4907 29.4341 35.4073 29.0656 35.3029 28.6797C33.2018 29.1307 31.0739 29.4499 28.9319 29.6354L28.9325 29.6381ZM11.4899 30.2909C10.637 34.633 11.2607 37.8749 12.7388 38.7109C13.4262 39.0982 14.5693 39.0982 16.0277 38.5885C17.9691 37.844 19.7544 36.7519 21.2936 35.3674C21.6062 35.1226 21.897 34.837 22.2096 34.5521C20.7595 33.0058 19.4103 31.3703 18.1701 29.6555C16.037 29.4918 13.9169 29.1926 11.8228 28.7599C11.698 29.289 11.5936 29.798 11.4892 30.2876L11.4899 30.2909ZM23.6042 33.1448C24.5202 32.1456 25.4348 31.0447 26.3521 29.8214C25.4361 29.8622 24.4788 29.8822 23.5215 29.8822C22.5845 29.8822 21.6688 29.862 20.7743 29.8214C21.6598 30.9748 22.6041 32.0832 23.6035 33.1422L23.6042 33.1448ZM19.2325 13.2429C18.442 14.3639 17.6732 15.5464 16.943 16.7877C16.2141 18.011 15.5483 19.2551 14.9443 20.4978C15.5687 21.7211 16.2324 22.9651 16.9633 24.2292C17.6921 25.4525 18.4623 26.6551 19.2529 27.7968C20.6265 27.8784 22.0631 27.9192 23.5201 27.9192C24.9975 27.9192 26.4355 27.8784 27.8281 27.7767C28.5779 26.6551 29.3475 25.4525 30.0763 24.2085C30.8051 22.9645 31.4913 21.701 32.0954 20.4777C31.492 19.2738 30.8072 18.0311 30.0763 16.7877C29.3454 15.5444 28.5773 14.3612 27.8078 13.2429C26.4131 13.1406 24.9765 13.079 23.5201 13.079C22.0638 13.079 20.6272 13.1412 19.2325 13.2429ZM12.3638 26.8825C13.794 27.1822 15.2392 27.407 16.6935 27.556C16.1938 26.7808 15.6948 26.0063 15.2154 25.191C14.7578 24.3964 14.2995 23.6005 13.8832 22.8059C13.3046 24.1375 12.7974 25.4983 12.3638 26.8825V26.8825ZM31.8221 25.1696C31.3435 25.9849 30.8648 26.7601 30.3861 27.5146C31.862 27.3442 33.328 27.0987 34.7782 26.7788C34.3246 25.3995 33.7963 24.0452 33.1957 22.7217C32.7609 23.5368 32.304 24.353 31.8248 25.1703L31.8221 25.1696ZM8.80438 15.1825C4.5588 16.65 1.99871 18.7943 1.99871 20.4623C1.99871 21.2375 2.58111 22.216 3.74657 23.1939C5.39228 24.459 7.25295 25.4254 9.24168 26.0478C9.61661 26.1702 10.0119 26.2725 10.4071 26.3949C11.049 24.384 11.8211 22.4158 12.7184 20.5025C11.8193 18.6205 11.054 16.6791 10.4282 14.6923C9.86633 14.8336 9.32507 14.997 8.80438 15.1825ZM34.3436 20.4623C35.2665 22.3511 36.0593 24.2992 36.7165 26.2933C36.9877 26.2123 37.2589 26.1301 37.5078 26.0485C42.1493 24.5396 45.0219 22.2361 45.0429 20.4416C45.0429 18.7695 42.3784 16.6092 38.0278 15.1411C37.5911 14.9986 37.1125 14.8555 36.6338 14.713C35.9996 16.6765 35.2345 18.5964 34.3436 20.4603V20.4623ZM31.8045 15.7711C32.2832 16.5864 32.7408 17.3823 33.1605 18.1789C33.7374 16.8834 34.2377 15.556 34.6588 14.2034C33.2431 13.887 31.8121 13.6415 30.3712 13.4676C30.8675 14.2221 31.3462 14.9765 31.8045 15.7711ZM12.3842 14.1793C12.8004 15.4835 13.3001 16.8091 13.8832 18.1749C14.2995 17.3803 14.7578 16.5844 15.2154 15.7898C15.6731 14.9953 16.1518 14.2201 16.6514 13.4656C15.1531 13.6516 13.7381 13.8964 12.3842 14.1793ZM26.0185 5.51649C25.6646 5.82215 25.3107 6.14854 24.9568 6.47493C26.3955 7.99866 27.724 9.62011 28.9325 11.3273C31.0474 11.5146 33.1471 11.8418 35.2175 12.3065C35.3009 12.0009 35.3633 11.6945 35.4256 11.3889C36.4033 6.70033 35.8006 3.11135 34.2181 2.2151C33.8667 2.03582 33.4746 1.94832 33.0791 1.96095C31.3787 1.96028 28.7698 3.17622 26.0185 5.51649ZM12.6967 2.27396C11.2187 3.10934 10.6363 6.45353 11.5102 10.8572C11.614 11.3253 11.7191 11.7935 11.8431 12.2838C13.9164 11.8364 16.0159 11.5166 18.1294 11.326C19.3423 9.61648 20.6777 7.99486 22.1255 6.47359C21.8964 6.24886 21.6469 6.04554 21.4177 5.84087C18.5179 3.32337 15.7361 1.99439 13.9171 1.99439C13.4925 1.98077 13.0718 2.07717 12.6967 2.27396V2.27396ZM26.3094 11.1628C25.4493 10.0189 24.5251 8.92315 23.5412 7.88083C22.6049 8.8794 21.6679 9.98098 20.7519 11.1628C21.6679 11.122 22.5825 11.102 23.5201 11.102C24.4578 11.102 25.3934 11.1234 26.3094 11.1635V11.1628ZM19.3553 20.5426C19.3495 19.7212 19.5911 18.9167 20.0495 18.231C20.5078 17.5453 21.1623 17.0093 21.9299 16.691C22.6974 16.3727 23.5435 16.2865 24.3608 16.4432C25.1782 16.6 25.9299 16.9926 26.5207 17.5714C27.1115 18.1502 27.5147 18.889 27.6793 19.6942C27.8439 20.4994 27.7623 21.3346 27.4451 22.094C27.1278 22.8534 26.589 23.5028 25.8972 23.9597C25.2053 24.4167 24.3914 24.6606 23.5588 24.6606C23.0083 24.6639 22.4626 24.5598 21.953 24.3544C21.4434 24.1489 20.98 23.8462 20.5894 23.4635C20.1988 23.0808 19.8887 22.6258 19.6769 22.1245C19.4651 21.6233 19.3558 21.0857 19.3553 20.5426V20.5426Z" fill="#81D8F7"/>
</svg>
